{"title":"Paper Towns (2015) CAM","uid":12292401,"size":579978686,"categoryP":"video","categoryS":"movies","magnet":"?xt=urn:btih:dae3cf13d44800d8a8d6039af3a30faac1b2abcb&amp;dn=Paper+Towns+%282015%29+CAM&amp;tr=udp%3A%2F%2Ftracker.openbittorrent.com%3A80&amp;tr=udp%3A%2F%2Fopen.demonii.com%3A1337&amp;tr=udp%3A%2F%2Ftracker.coppersurfer.tk%3A6969&amp;tr=udp%3A%2F%2Fexodus.desync.com%3A6969","seeders":18,"leechers":2,"uploader":"SS132203","files":2,"time":1440573931,"description":"Paper Towns (2015) CAM\n &lt;a href=&quot;\nhttp://imgsparrow.co/image/8gV&quot; rel=&quot;nofollow&quot; target=&quot;_NEW&quot;&gt;\nhttp://imgsparrow.co/image/8gV&lt;/a&gt;\n &lt;a href=&quot;\nhttp://imgsparrow.co/image/9b&quot; rel=&quot;nofollow&quot; target=&quot;_NEW&quot;&gt;\nhttp://imgsparrow.co/image/9b&lt;/a&gt;\n\nInfo : - \n\nPaper.Towns.2015.CAM.English.mp4\nFormat                      : MPEG-4\nFormat profile              : Base Media / Version 2\nCodec ID                    : mp42\nFile size                   : 553 MiB\nDuration                    : 1h 42mn\nOverall bit rate mode       : Variable\nOverall bit rate            : 754 Kbps\nWriting application         : HandBrake 0.10.1 2015030800\n\nVideo\nID                          : 1\nFormat                      : AVC\nFormat/Info                 : Advanced Video Codec\nFormat profile              : Main@L4\nFormat settings, CABAC      : Yes\nFormat settings, ReFrames   : 4 frames\nCodec ID                    : avc1\nCodec ID/Info               : Advanced Video Coding\nDuration                    : 1h 42mn\nBit rate                    : 587 Kbps\nWidth                       : 720 pixels\nHeight                      : 352 pixels\nDisplay aspect ratio        : 2.045\nFrame rate mode             : Variable\nFrame rate                  : 29.970 fps\nMinimum frame rate          : 14.985 fps\nMaximum frame rate          : 29.970 fps\nColor space                 : YUV\nChroma subsampling          : 4:2:0\nBit depth                   : 8 bits\nScan type                   : Progressive\nBits/(Pixel*Frame)          : 0.077\nStream size                 : 431 MiB (78%)\nWriting library             : x264 core 142 r2479 dd79a61\nEncoding settings           : cabac=1 / ref=1 / deblock=1:0:0 / analyse=0x1:0x111 / me=hex / subme=2 / psy=1 / psy_rd=1.00:0.00 / mixed_ref=0 / me_range=16 / chroma_me=1 / trellis=0 / 8x8dct=0 / cqm=0 / deadzone=21,11 / fast_pskip=1 / chroma_qp_offset=0 / threads=9 / lookahead_threads=2 / sliced_threads=0 / nr=0 / decimate=1 / interlaced=0 / bluray_compat=0 / constrained_intra=0 / bframes=3 / b_pyramid=2 / b_adapt=1 / b_bias=0 / direct=1 / weightb=1 / open_gop=0 / weightp=1 / keyint=300 / keyint_min=30 / scenecut=40 / intra_refresh=0 / rc_lookahead=10 / rc=crf / mbtree=1 / crf=20.0 / qcomp=0.60 / qpmin=0 / qpmax=69 / qpstep=4 / vbv_maxrate=20000 / vbv_bufsize=25000 / crf_max=0.0 / nal_hrd=none / filler=0 / ip_ratio=1.40 / aq=1:1.00\nColor range                 : Limited\nColor primaries             : BT.601 NTSC\nTransfer characteristics    : BT.709\nMatrix coefficients         : BT.601\n\nAudio\nID                          : 2\nFormat                      : AAC\nFormat/Info                 : Advanced Audio Codec\nFormat profile              : LC\nCodec ID                    : 40\nDuration                    : 1h 42mn\nBit rate mode               : Variable\nBit rate                    : 160 Kbps\nChannel(s)                  : 2 channels\nChannel positions           : Front: L R\nSampling rate               : 48.0 KHz\nCompression mode            : Lossy\nStream size                 : 118 MiB (21%)\nTitle                       : Stereo / Stereo\nLanguage                    : English\n\nScreens : - \n &lt;a href=&quot;\nhttp://imgsparrow.co/image/8gK&quot; rel=&quot;nofollow&quot; target=&quot;_NEW&quot;&gt;\nhttp://imgsparrow.co/image/8gK&lt;/a&gt; &lt;a href=&quot;\nhttp://imgsparrow.co/image/8g2&quot; rel=&quot;nofollow&quot; target=&quot;_NEW&quot;&gt;\nhttp://imgsparrow.co/image/8g2&lt;/a&gt; &lt;a href=&quot;\nhttp://imgsparrow.co/image/8g3&quot; rel=&quot;nofollow&quot; target=&quot;_NEW&quot;&gt;\nhttp://imgsparrow.co/image/8g3&lt;/a&gt; &lt;a href=&quot;\nhttp://imgsparrow.co/image/8gi&quot; rel=&quot;nofollow&quot; target=&quot;_NEW&quot;&gt;\nhttp://imgsparrow.co/image/8gi&lt;/a&gt;\n &lt;a href=&quot;\nhttp://imgsparrow.co/image/N2&quot; rel=&quot;nofollow&quot; target=&quot;_NEW&quot;&gt;\nhttp://imgsparrow.co/image/N2&lt;/a&gt;","torrent":{"xt":"urn:btih:dae3cf13d44800d8a8d6039af3a30faac1b2abcb","amp;dn":"Paper+Towns+%282015%29+CAM","amp;tr":["udp%3A%2F%2Ftracker.openbittorrent.com%3A80","udp%3A%2F%2Fopen.demonii.com%3A1337","udp%3A%2F%2Ftracker.coppersurfer.tk%3A6969","udp%3A%2F%2Fexodus.desync.com%3A6969"],"infoHash":"dae3cf13d44800d8a8d6039af3a30faac1b2abcb","infoHashBuffer":{"type":"Buffer","data":[218,227,207,19,212,72,0,216,168,214,3,154,243,163,15,170,193,178,171,203]},"announce":[],"urlList":[]}}